#!OML:ASF G:\JayActor3\Patient Classification 1\Patient 1\Session 2\male.ASF
:FULLY-SPECIFIED
:DEGREES
1667
root 0.998923 16.7046 -6.43246 1695.96 -87.1104 101.252
lowerback -3.46329 4.29788 -0.823549
upperback 7.14707 5.87939 -2.17592
thorax 9.65801 2.83646 -1.16741
lowerneck -13.347 -3.53498 -2.20773
upperneck 24.8033 -6.46983 5.90037
head 10.4072 -2.66176 1.59963
rclavicle 1.36167e-014 -9.54166e-015
rhumerus 46.6205 61.1065 -9.16702
rradius 70.6656
rwrist -8.414
rhand -10.8042 20.5748
rfingers 7.12502
rthumb 15.2091 -8.84619
lclavicle 1.36167e-014 -9.54166e-015
lhumerus 35.396 -70.2844 28.0988
lradius 76.8966
lwrist 25.4696
lhand -3.61168 3.32523
lfingers 7.12502
lthumb 22.1268 32.0791
rfemur -8.06156 -5.5765 13.986
rtibia 71.4094
rfoot -5.92112 -16.5242
rtoes 15.673
lfemur -10.755 8.31719 -21.116
ltibia 29.8312
lfoot -10.4178 2.87438
ltoes -17.2363
1668
root 0.819359 16.7376 -6.39327 1698.7 -87.0187 98.8561
lowerback -3.6312 3.95654 -1.12002
upperback 7.17837 5.43299 -1.95559
thorax 9.72702 2.58612 -0.812043
lowerneck -13.4763 -3.48299 -2.17609
upperneck 25.0442 -6.38258 5.71942
head 10.5081 -2.63487 1.53996
rclavicle -7.75757e-014 4.19436e-014
rhumerus 43.2836 61.9537 -13.2231
rradius 70.4382
rwrist -8.11519
rhand -10.86 20.5278
rfingers 7.12502
rthumb 15.1553 -8.89728
lclavicle -7.75757e-014 4.19436e-014
lhumerus 30.9824 -70.608 32.8669
lradius 76.6101
lwrist 25.1052
lhand -3.55275 3.35821
lfingers 7.12502
lthumb 22.1834 32.1053
rfemur -10.1088 -5.95187 14.1464
rtibia 72.704
rfoot -6.65506 -15.6809
rtoes 14.2096
lfemur -10.1459 8.19709 -21.3806
ltibia 29.2692
lfoot -10.4786 2.93784
ltoes -17.4487
1669
root 0.639485 16.7718 -6.35668 1702.32 -87.0027 95.6076
lowerback -3.78142 3.58078 -1.37337
upperback 7.1893 4.93369 -1.69094
thorax 9.7711 2.31217 -0.442328
lowerneck -13.5881 -3.42436 -2.15676
upperneck 25.2185 -6.26698 5.51164
head 10.5797 -2.60037 1.47668
rclavicle 1.97045e-014 5.96354e-016
rhumerus 39.6505 62.662 -17.4445
rradius 70.2562
rwrist -7.81197
rhand -10.8889 20.5086
rfingers 7.12502
rthumb 15.1275 -8.9185
lclavicle 1.97045e-014 5.96354e-016
lhumerus 26.3781 -70.7765 37.8009
lradius 76.3322
lwrist 24.7199
lhand -3.50804 3.37769
lfingers 7.12502
lthumb 22.2263 32.1197
rfemur -12.1388 -6.34873 14.4465
rtibia 73.7745
rfoot -7.43646 -14.9668
rtoes 12.9686
lfemur -9.61212 8.06459 -21.5625
ltibia 28.7775
lfoot -10.4977 2.99003
ltoes -17.7605
1670
root 0.458548 16.8064 -6.32166 1706.89 -87.0441 91.4058
lowerback -3.90002 3.17604 -1.5798
upperback 7.18994 4.38705 -1.37955
thorax 9.79482 2.01734 -0.057494
lowerneck -13.6823 -3.3603 -2.15828
upperneck 25.3273 -6.12068 5.27028
head 10.6221 -2.55862 1.40922
rclavicle -1.86609e-014 5.56597e-015
rhumerus 35.8724 63.2271 -21.6562
rradius 70.1234
rwrist -7.49193
rhand -10.9039 20.5008
rfingers 7.12502
rthumb 15.1131 -8.92745
lclavicle -1.86609e-014 5.56597e-015
lhumerus 21.6328 -70.7758 42.864
lradius 76.0637
lwrist 24.3218
lhand -3.50052 3.37241
lfingers 7.12502
lthumb 22.2335 32.1136
rfemur -14.107 -6.75172 14.857
rtibia 74.6137
rfoot -8.27618 -14.3534
rtoes 11.8973
lfemur -9.11996 7.93335 -21.6702
ltibia 28.3607
lfoot -10.485 3.03884
ltoes -18.1675
1671
root 0.27619 16.8409 -6.28784 1712.21 -87.1033 86.4359
lowerback -3.99885 2.75393 -1.75828
upperback 7.17849 3.81101 -1.03158
thorax 9.80406 1.70924 0.345374
lowerneck -13.7569 -3.29175 -2.16891
upperneck 25.376 -5.94508 4.98179
head 10.6362 -2.51064 1.3307
rclavicle -1.0753e-014 1.23371e-014
rhumerus 32.0819 63.6598 -25.7143
rradius 70.035
rwrist -7.17011
rhand -10.9057 20.5017
rfingers 7.12502
rthumb 15.1113 -8.92668
lclavicle -1.0753e-014 1.23371e-014
lhumerus 16.8393 -70.5957 47.9707
lradius 75.8056
lwrist 23.9255
lhand -3.52197 3.35201
lfingers 7.12502
lthumb 22.2129 32.0956
rfemur -16.0169 -7.13141 15.3369
rtibia 75.2266
rfoot -9.17925 -13.8287
rtoes 10.9425
lfemur -8.66612 7.82771 -21.7347
ltibia 28.0136
lfoot -10.4541 3.08602
ltoes -18.5922
1672
root 0.0921328 16.8749 -6.25478 1718.01 -87.146 80.9906
lowerback -4.08902 2.32356 -1.92082
upperback 7.15753 3.22006 -0.662197
thorax 9.80963 1.39434 0.759453
lowerneck -13.8148 -3.21395 -2.19321
upperneck 25.3759 -5.73861 4.66227
head 10.6276 -2.45407 1.24786
rclavicle -8.05078e-015 7.7526e-015
rhumerus 28.3911 63.9892 -29.5139
rradius 69.9781
rwrist -6.86924
rhand -10.9091 20.4925
rfingers 7.12502
rthumb 15.108 -8.93615
lclavicle -8.05078e-015 7.7526e-015
lhumerus 12.1045 -70.2306 53.0125
lradius 75.559
lwrist 23.554
lhand -3.57209 3.33155
lfingers 7.12502
lthumb 22.1648 32.0809
rfemur -17.8705 -7.46612 15.8447
rtibia 75.625
rfoot -10.1727 -13.366
rtoes 10.0477
lfemur -8.23786 7.75256 -21.7853
ltibia 27.7238
lfoot -10.4129 3.13711
ltoes -18.9705
1673
root -0.0925526 16.9077 -6.22267 1724 -87.1368 75.3567
lowerback -4.16711 1.88892 -2.08667
upperback 7.12478 2.62263 -0.29242
thorax 9.80759 1.07619 1.1741
lowerneck -13.869 -3.12337 -2.20367
upperneck 25.3466 -5.50368 4.30453
head 10.6055 -2.3878 1.15303
rclavicle 3.47873e-015 -9.14409e-015
rhumerus 24.8432 64.23 -33.047
rradius 69.9179
rwrist -6.59619
rhand -10.9122 20.4722
rfingers 7.12502
rthumb 15.105 -8.95662
lclavicle 3.47873e-015 -9.14409e-015
lhumerus 7.54487 -69.6899 57.8589
lradius 75.3229
lwrist 23.22
lhand -3.6476 3.31596
lfingers 7.12502
lthumb 22.0923 32.0739
rfemur -19.685 -7.7466 16.3382
rtibia 75.8273
rfoot -11.2525 -12.941
rtoes 9.20203
lfemur -7.8372 7.69647 -21.8576
ltibia 27.4758
lfoot -10.3626 3.20598
ltoes -19.2756
1674
root -0.277457 16.939 -6.19153 1729.46 -87.0595 70.2637
lowerback -4.24453 1.4591 -2.25615
upperback 7.08029 2.03354 0.0530761
thorax 9.80539 0.762919 1.56561
lowerneck -13.916 -3.0182 -2.18309
upperneck 25.2921 -5.24887 3.92767
head 10.5718 -2.31202 1.04902
rclavicle -3.32964e-014 1.51076e-014
rhumerus 21.4111 64.38 -36.3914
rradius 69.8134
rwrist -6.35618
rhand -10.9199 20.4524
rfingers 7.12502
rthumb 15.0977 -8.97701
lclavicle -3.32964e-014 1.51076e-014
lhumerus 3.29344 -69.006 62.3569
lradius 75.0931
lwrist 22.9241
lhand -3.7429 3.30609
lfingers 7.12502
lthumb 22.0008 32.0748
rfemur -21.4791 -7.95447 16.7849
rtibia 75.8496
rfoot -12.3746 -12.5417
rtoes 8.32801
lfemur -7.46717 7.64846 -21.9774
ltibia 27.2577
lfoot -10.3082 3.31315
ltoes -19.5346
1675
root -0.462349 16.9683 -6.16144 1733.74 -86.9219 66.3723
lowerback -4.32284 1.04351 -2.42031
upperback 7.02129 1.46658 0.354897
thorax 9.79978 0.462977 1.90993
lowerneck -13.9583 -2.89731 -2.11215
upperneck 25.2255 -4.98372 3.54727
head 10.5322 -2.22744 0.936801
rclavicle -1.19271e-014 3.97569e-015
rhumerus 18.0215 64.4196 -39.671
rradius 69.6315
rwrist -6.13772
rhand -10.939 20.4425
rfingers 7.12502
rthumb 15.0792 -8.98823
lclavicle -1.19271e-014 3.97569e-015
lhumerus -0.583536 -68.231 66.4137
lradius 74.8702
lwrist 22.6436
lhand -3.85037 3.28794
lfingers 7.12502
lthumb 21.8976 32.0688
rfemur -23.2646 -8.06335 17.1676
rtibia 75.7022
rfoot -13.4978 -12.1577
rtoes 7.48837
lfemur -7.12751 7.60737 -22.155
ltibia 27.0606
lfoot -10.2505 3.47617
ltoes -19.7582
1676
root -0.646921 16.9955 -6.13226 1736.51 -86.7436 64.0084
lowerback -4.40228 0.649165 -2.56936
upperback 6.94201 0.931563 0.604658
thorax 9.78171 0.182698 2.19361
lowerneck -13.9982 -2.76249 -1.99271
upperneck 25.1637 -4.71769 3.18332
head 10.4948 -2.13628 0.822415
rclavicle -7.45443e-015 -5.96354e-015
rhumerus 14.5926 64.3075 -43.0064
rradius 69.3506
rwrist -5.90519
rhand -10.969 20.449
rfingers 7.12502
rthumb 15.0503 -8.9839
lclavicle -7.45443e-015 -5.96354e-015
lhumerus -4.0621 -67.4217 69.9957
lradius 74.6528
lwrist 22.3471
lhand -3.9649 3.25915
lfingers 7.12502
lthumb 21.7877 32.0528
rfemur -25.05 -8.05143 17.4758
rtibia 75.3892
rfoot -14.5464 -11.7953
rtoes 6.74177
lfemur -6.82204 7.5754 -22.3947
ltibia 26.8773
lfoot -10.194 3.71739
ltoes -20.0133
